<mxfile host="app.diagrams.net" agent="Mozilla/5.0 (Windows NT 10.0; Win64; x64) AppleWebKit/537.36 (KHTML, like Gecko) Chrome/134.0.0.0 Safari/537.36" version="26.1.3">
  <diagram name="Page-1" id="74e2e168-ea6b-b213-b513-2b3c1d86103e">
    <mxGraphModel dx="1050" dy="557" grid="1" gridSize="10" guides="1" tooltips="1" connect="1" arrows="1" fold="1" page="1" pageScale="1" pageWidth="1100" pageHeight="850" background="none" math="0" shadow="0">
      <root>
        <mxCell id="0" />
        <mxCell id="1" parent="0" />
        <mxCell id="-9XbWACIWwENg5wLCgYN-1" value="&lt;font style=&quot;font-size: 18px;&quot;&gt;查看检修计划&lt;/font&gt;" style="swimlane;html=1;childLayout=stackLayout;startSize=20;rounded=0;shadow=0;labelBackgroundColor=none;strokeWidth=1;fontFamily=Verdana;fontSize=8;align=center;" vertex="1" parent="1">
          <mxGeometry x="70" y="40" width="800" height="1100" as="geometry" />
        </mxCell>
        <mxCell id="-9XbWACIWwENg5wLCgYN-2" value="接收请求" style="swimlane;html=1;startSize=20;" vertex="1" parent="-9XbWACIWwENg5wLCgYN-1">
          <mxGeometry y="20" width="160" height="1080" as="geometry">
            <mxRectangle y="20" width="40" height="730" as="alternateBounds" />
          </mxGeometry>
        </mxCell>
        <mxCell id="-9XbWACIWwENg5wLCgYN-4" value="&lt;font style=&quot;font-size: 12px;&quot;&gt;开始&lt;/font&gt;" style="rounded=1;whiteSpace=wrap;html=1;shadow=0;labelBackgroundColor=none;strokeWidth=1;fontFamily=Verdana;fontSize=8;align=center;" vertex="1" parent="-9XbWACIWwENg5wLCgYN-2">
          <mxGeometry x="20" y="65" width="100" height="60" as="geometry" />
        </mxCell>
        <mxCell id="-9XbWACIWwENg5wLCgYN-5" style="edgeStyle=orthogonalEdgeStyle;rounded=0;orthogonalLoop=1;jettySize=auto;html=1;entryX=0.5;entryY=0;entryDx=0;entryDy=0;exitX=0.5;exitY=1;exitDx=0;exitDy=0;" edge="1" parent="-9XbWACIWwENg5wLCgYN-2" source="-9XbWACIWwENg5wLCgYN-4" target="-9XbWACIWwENg5wLCgYN-6">
          <mxGeometry relative="1" as="geometry">
            <mxPoint x="70" y="220" as="sourcePoint" />
          </mxGeometry>
        </mxCell>
        <mxCell id="-9XbWACIWwENg5wLCgYN-66" style="edgeStyle=orthogonalEdgeStyle;rounded=0;orthogonalLoop=1;jettySize=auto;html=1;exitX=0.5;exitY=1;exitDx=0;exitDy=0;entryX=0.5;entryY=0;entryDx=0;entryDy=0;" edge="1" parent="-9XbWACIWwENg5wLCgYN-2" source="-9XbWACIWwENg5wLCgYN-6" target="-9XbWACIWwENg5wLCgYN-65">
          <mxGeometry relative="1" as="geometry" />
        </mxCell>
        <mxCell id="-9XbWACIWwENg5wLCgYN-67" value="是" style="edgeLabel;html=1;align=center;verticalAlign=middle;resizable=0;points=[];" vertex="1" connectable="0" parent="-9XbWACIWwENg5wLCgYN-66">
          <mxGeometry x="-0.2686" y="-4" relative="1" as="geometry">
            <mxPoint as="offset" />
          </mxGeometry>
        </mxCell>
        <mxCell id="-9XbWACIWwENg5wLCgYN-6" value="&lt;span style=&quot;font-size: 12px;&quot;&gt;是否开启了&lt;/span&gt;&lt;div&gt;&lt;span style=&quot;font-size: 12px;&quot;&gt;停电范围分析异步模式&lt;/span&gt;&lt;/div&gt;" style="rhombus;whiteSpace=wrap;html=1;rounded=0;shadow=0;labelBackgroundColor=none;strokeWidth=1;fontFamily=Verdana;fontSize=8;align=center;" vertex="1" parent="-9XbWACIWwENg5wLCgYN-2">
          <mxGeometry x="20" y="160" width="100" height="75" as="geometry" />
        </mxCell>
        <mxCell id="-9XbWACIWwENg5wLCgYN-68" style="edgeStyle=orthogonalEdgeStyle;rounded=0;orthogonalLoop=1;jettySize=auto;html=1;exitX=0.5;exitY=1;exitDx=0;exitDy=0;" edge="1" parent="-9XbWACIWwENg5wLCgYN-2" source="-9XbWACIWwENg5wLCgYN-65">
          <mxGeometry relative="1" as="geometry">
            <mxPoint x="70" y="250" as="targetPoint" />
            <Array as="points">
              <mxPoint x="70" y="365" />
              <mxPoint x="10" y="365" />
              <mxPoint x="10" y="250" />
            </Array>
          </mxGeometry>
        </mxCell>
        <mxCell id="-9XbWACIWwENg5wLCgYN-69" value="否" style="edgeLabel;html=1;align=center;verticalAlign=middle;resizable=0;points=[];" vertex="1" connectable="0" parent="-9XbWACIWwENg5wLCgYN-68">
          <mxGeometry x="-0.8996" relative="1" as="geometry">
            <mxPoint as="offset" />
          </mxGeometry>
        </mxCell>
        <mxCell id="-9XbWACIWwENg5wLCgYN-65" value="&lt;span style=&quot;font-size: 12px;&quot;&gt;停电访问分析&lt;/span&gt;&lt;div&gt;&lt;span style=&quot;font-size: 12px;&quot;&gt;完成或超时&lt;/span&gt;&lt;/div&gt;" style="rhombus;whiteSpace=wrap;html=1;rounded=0;shadow=0;labelBackgroundColor=none;strokeWidth=1;fontFamily=Verdana;fontSize=8;align=center;" vertex="1" parent="-9XbWACIWwENg5wLCgYN-2">
          <mxGeometry x="20" y="270" width="100" height="75" as="geometry" />
        </mxCell>
        <mxCell id="-9XbWACIWwENg5wLCgYN-11" value="查询检修计划" style="swimlane;html=1;startSize=20;" vertex="1" parent="-9XbWACIWwENg5wLCgYN-1">
          <mxGeometry x="160" y="20" width="160" height="1080" as="geometry" />
        </mxCell>
        <mxCell id="-9XbWACIWwENg5wLCgYN-12" style="edgeStyle=orthogonalEdgeStyle;rounded=0;orthogonalLoop=1;jettySize=auto;html=1;exitX=0.5;exitY=1;exitDx=0;exitDy=0;entryX=0.5;entryY=0;entryDx=0;entryDy=0;" edge="1" parent="-9XbWACIWwENg5wLCgYN-11" target="-9XbWACIWwENg5wLCgYN-16">
          <mxGeometry relative="1" as="geometry">
            <mxPoint x="80" y="325" as="sourcePoint" />
          </mxGeometry>
        </mxCell>
        <mxCell id="-9XbWACIWwENg5wLCgYN-16" value="&lt;div&gt;&lt;span style=&quot;font-size: 12px;&quot;&gt;通过&lt;/span&gt;&lt;/div&gt;&lt;span style=&quot;font-size: 12px;&quot;&gt;检修计划对象&lt;/span&gt;&lt;div&gt;&lt;span style=&quot;font-size: 12px;&quot;&gt;组织扩展对象&lt;/span&gt;&lt;/div&gt;" style="whiteSpace=wrap;html=1;fontSize=8;fontFamily=Verdana;rounded=0;shadow=0;labelBackgroundColor=none;strokeWidth=1;" vertex="1" parent="-9XbWACIWwENg5wLCgYN-11">
          <mxGeometry x="30" y="380" width="100" height="60" as="geometry" />
        </mxCell>
        <mxCell id="-9XbWACIWwENg5wLCgYN-70" value="&lt;span style=&quot;font-size: 12px;&quot;&gt;根据主键&lt;/span&gt;&lt;div&gt;&lt;span style=&quot;font-size: 12px;&quot;&gt;查询检修计划&lt;/span&gt;&lt;/div&gt;" style="whiteSpace=wrap;html=1;fontSize=8;fontFamily=Verdana;rounded=0;shadow=0;labelBackgroundColor=none;strokeWidth=1;" vertex="1" parent="-9XbWACIWwENg5wLCgYN-11">
          <mxGeometry x="30" y="277.5" width="100" height="60" as="geometry" />
        </mxCell>
        <mxCell id="-9XbWACIWwENg5wLCgYN-21" value="查询停电范围数据" style="swimlane;html=1;startSize=20;" vertex="1" parent="-9XbWACIWwENg5wLCgYN-1">
          <mxGeometry x="320" y="20" width="160" height="1080" as="geometry" />
        </mxCell>
        <mxCell id="-9XbWACIWwENg5wLCgYN-22" style="edgeStyle=orthogonalEdgeStyle;rounded=0;orthogonalLoop=1;jettySize=auto;html=1;exitX=0.5;exitY=1;exitDx=0;exitDy=0;entryX=0.5;entryY=0;entryDx=0;entryDy=0;" edge="1" parent="-9XbWACIWwENg5wLCgYN-21" target="-9XbWACIWwENg5wLCgYN-25">
          <mxGeometry relative="1" as="geometry">
            <mxPoint x="80" y="317.5" as="sourcePoint" />
          </mxGeometry>
        </mxCell>
        <mxCell id="-9XbWACIWwENg5wLCgYN-24" style="edgeStyle=orthogonalEdgeStyle;rounded=0;orthogonalLoop=1;jettySize=auto;html=1;exitX=0.5;exitY=1;exitDx=0;exitDy=0;entryX=0.5;entryY=0;entryDx=0;entryDy=0;" edge="1" parent="-9XbWACIWwENg5wLCgYN-21" target="-9XbWACIWwENg5wLCgYN-27">
          <mxGeometry relative="1" as="geometry">
            <mxPoint x="80" y="420" as="sourcePoint" />
          </mxGeometry>
        </mxCell>
        <mxCell id="-9XbWACIWwENg5wLCgYN-26" style="edgeStyle=orthogonalEdgeStyle;rounded=0;orthogonalLoop=1;jettySize=auto;html=1;exitX=0.5;exitY=1;exitDx=0;exitDy=0;entryX=0.5;entryY=0;entryDx=0;entryDy=0;" edge="1" parent="-9XbWACIWwENg5wLCgYN-21" target="-9XbWACIWwENg5wLCgYN-28">
          <mxGeometry relative="1" as="geometry">
            <mxPoint x="80" y="520" as="sourcePoint" />
          </mxGeometry>
        </mxCell>
        <mxCell id="-9XbWACIWwENg5wLCgYN-80" style="edgeStyle=orthogonalEdgeStyle;rounded=0;orthogonalLoop=1;jettySize=auto;html=1;exitX=0.5;exitY=1;exitDx=0;exitDy=0;entryX=0.5;entryY=0;entryDx=0;entryDy=0;" edge="1" parent="-9XbWACIWwENg5wLCgYN-21" source="-9XbWACIWwENg5wLCgYN-74" target="-9XbWACIWwENg5wLCgYN-75">
          <mxGeometry relative="1" as="geometry" />
        </mxCell>
        <mxCell id="-9XbWACIWwENg5wLCgYN-74" value="&lt;div&gt;&lt;span style=&quot;font-size: 12px;&quot;&gt;查询&lt;/span&gt;&lt;/div&gt;&lt;div&gt;&lt;span style=&quot;font-size: 12px;&quot;&gt;检修计划停电范围&lt;/span&gt;&lt;/div&gt;" style="whiteSpace=wrap;html=1;fontSize=8;fontFamily=Verdana;rounded=0;shadow=0;labelBackgroundColor=none;strokeWidth=1;" vertex="1" parent="-9XbWACIWwENg5wLCgYN-21">
          <mxGeometry x="30" y="380" width="100" height="60" as="geometry" />
        </mxCell>
        <mxCell id="-9XbWACIWwENg5wLCgYN-82" style="edgeStyle=orthogonalEdgeStyle;rounded=0;orthogonalLoop=1;jettySize=auto;html=1;exitX=0.5;exitY=1;exitDx=0;exitDy=0;entryX=0.5;entryY=0;entryDx=0;entryDy=0;" edge="1" parent="-9XbWACIWwENg5wLCgYN-21" source="-9XbWACIWwENg5wLCgYN-75" target="-9XbWACIWwENg5wLCgYN-76">
          <mxGeometry relative="1" as="geometry" />
        </mxCell>
        <mxCell id="-9XbWACIWwENg5wLCgYN-75" value="&lt;div&gt;&lt;span style=&quot;font-size: 12px;&quot;&gt;查询&lt;/span&gt;&lt;/div&gt;&lt;div&gt;&lt;span style=&quot;font-size: 12px;&quot;&gt;检修计划的站线&lt;/span&gt;&lt;/div&gt;" style="whiteSpace=wrap;html=1;fontSize=8;fontFamily=Verdana;rounded=0;shadow=0;labelBackgroundColor=none;strokeWidth=1;" vertex="1" parent="-9XbWACIWwENg5wLCgYN-21">
          <mxGeometry x="30" y="480" width="100" height="60" as="geometry" />
        </mxCell>
        <mxCell id="-9XbWACIWwENg5wLCgYN-83" style="edgeStyle=orthogonalEdgeStyle;rounded=0;orthogonalLoop=1;jettySize=auto;html=1;exitX=0.5;exitY=1;exitDx=0;exitDy=0;entryX=0.5;entryY=0;entryDx=0;entryDy=0;" edge="1" parent="-9XbWACIWwENg5wLCgYN-21" source="-9XbWACIWwENg5wLCgYN-76" target="-9XbWACIWwENg5wLCgYN-77">
          <mxGeometry relative="1" as="geometry" />
        </mxCell>
        <mxCell id="-9XbWACIWwENg5wLCgYN-76" value="&lt;div&gt;&lt;span style=&quot;font-size: 12px;&quot;&gt;查询&lt;/span&gt;&lt;/div&gt;&lt;div&gt;&lt;span style=&quot;font-size: 12px;&quot;&gt;检修计划变更数据&lt;/span&gt;&lt;/div&gt;" style="whiteSpace=wrap;html=1;fontSize=8;fontFamily=Verdana;rounded=0;shadow=0;labelBackgroundColor=none;strokeWidth=1;" vertex="1" parent="-9XbWACIWwENg5wLCgYN-21">
          <mxGeometry x="30" y="580" width="100" height="60" as="geometry" />
        </mxCell>
        <mxCell id="-9XbWACIWwENg5wLCgYN-85" style="edgeStyle=orthogonalEdgeStyle;rounded=0;orthogonalLoop=1;jettySize=auto;html=1;exitX=0.5;exitY=1;exitDx=0;exitDy=0;entryX=0.5;entryY=0;entryDx=0;entryDy=0;" edge="1" parent="-9XbWACIWwENg5wLCgYN-21" source="-9XbWACIWwENg5wLCgYN-77" target="-9XbWACIWwENg5wLCgYN-84">
          <mxGeometry relative="1" as="geometry" />
        </mxCell>
        <mxCell id="-9XbWACIWwENg5wLCgYN-77" value="&lt;span style=&quot;font-size: 12px;&quot;&gt;查询&lt;/span&gt;&lt;div&gt;&lt;span style=&quot;font-size: 12px;&quot;&gt;停电申请单&lt;/span&gt;&lt;/div&gt;" style="whiteSpace=wrap;html=1;fontSize=8;fontFamily=Verdana;rounded=0;shadow=0;labelBackgroundColor=none;strokeWidth=1;" vertex="1" parent="-9XbWACIWwENg5wLCgYN-21">
          <mxGeometry x="30" y="680" width="100" height="60" as="geometry" />
        </mxCell>
        <mxCell id="-9XbWACIWwENg5wLCgYN-79" style="edgeStyle=orthogonalEdgeStyle;rounded=0;orthogonalLoop=1;jettySize=auto;html=1;exitX=0.5;exitY=1;exitDx=0;exitDy=0;entryX=0.5;entryY=0;entryDx=0;entryDy=0;" edge="1" parent="-9XbWACIWwENg5wLCgYN-21" source="-9XbWACIWwENg5wLCgYN-78" target="-9XbWACIWwENg5wLCgYN-74">
          <mxGeometry relative="1" as="geometry" />
        </mxCell>
        <mxCell id="-9XbWACIWwENg5wLCgYN-78" value="&lt;span style=&quot;font-size: 12px;&quot;&gt;查询&lt;/span&gt;&lt;div&gt;&lt;span style=&quot;font-size: 12px;&quot;&gt;停电边界设备&lt;/span&gt;&lt;/div&gt;" style="whiteSpace=wrap;html=1;fontSize=8;fontFamily=Verdana;rounded=0;shadow=0;labelBackgroundColor=none;strokeWidth=1;" vertex="1" parent="-9XbWACIWwENg5wLCgYN-21">
          <mxGeometry x="30" y="280" width="100" height="60" as="geometry" />
        </mxCell>
        <mxCell id="-9XbWACIWwENg5wLCgYN-84" value="&lt;span style=&quot;font-size: 12px;&quot;&gt;组装数据到&lt;/span&gt;&lt;div&gt;&lt;span style=&quot;font-size: 12px;&quot;&gt;检修计划对象&lt;/span&gt;&lt;/div&gt;" style="whiteSpace=wrap;html=1;fontSize=8;fontFamily=Verdana;rounded=0;shadow=0;labelBackgroundColor=none;strokeWidth=1;" vertex="1" parent="-9XbWACIWwENg5wLCgYN-21">
          <mxGeometry x="30" y="780" width="100" height="60" as="geometry" />
        </mxCell>
        <mxCell id="-9XbWACIWwENg5wLCgYN-29" value="查询检修计划任务" style="swimlane;html=1;startSize=20;" vertex="1" parent="-9XbWACIWwENg5wLCgYN-1">
          <mxGeometry x="480" y="20" width="160" height="1080" as="geometry" />
        </mxCell>
        <mxCell id="-9XbWACIWwENg5wLCgYN-30" value="" style="edgeStyle=orthogonalEdgeStyle;rounded=0;orthogonalLoop=1;jettySize=auto;html=1;" edge="1" parent="-9XbWACIWwENg5wLCgYN-29" source="-9XbWACIWwENg5wLCgYN-31" target="-9XbWACIWwENg5wLCgYN-33">
          <mxGeometry relative="1" as="geometry" />
        </mxCell>
        <mxCell id="-9XbWACIWwENg5wLCgYN-31" value="&lt;font style=&quot;font-size: 12px;&quot;&gt;查询&lt;br&gt;检修计划关联任务&lt;/font&gt;" style="whiteSpace=wrap;html=1;fontSize=8;fontFamily=Verdana;rounded=0;shadow=0;labelBackgroundColor=none;strokeWidth=1;" vertex="1" parent="-9XbWACIWwENg5wLCgYN-29">
          <mxGeometry x="30" y="280" width="100" height="60" as="geometry" />
        </mxCell>
        <mxCell id="-9XbWACIWwENg5wLCgYN-32" style="edgeStyle=orthogonalEdgeStyle;rounded=0;orthogonalLoop=1;jettySize=auto;html=1;exitX=0.5;exitY=1;exitDx=0;exitDy=0;entryX=0.5;entryY=0;entryDx=0;entryDy=0;" edge="1" parent="-9XbWACIWwENg5wLCgYN-29" source="-9XbWACIWwENg5wLCgYN-33" target="-9XbWACIWwENg5wLCgYN-35">
          <mxGeometry relative="1" as="geometry" />
        </mxCell>
        <mxCell id="-9XbWACIWwENg5wLCgYN-33" value="&lt;span style=&quot;font-size: 12px;&quot;&gt;查询&lt;/span&gt;&lt;div&gt;&lt;span style=&quot;font-size: 12px;&quot;&gt;检修设备信息&lt;/span&gt;&lt;/div&gt;" style="whiteSpace=wrap;html=1;fontSize=8;fontFamily=Verdana;rounded=0;shadow=0;labelBackgroundColor=none;strokeWidth=1;" vertex="1" parent="-9XbWACIWwENg5wLCgYN-29">
          <mxGeometry x="30" y="380" width="100" height="60" as="geometry" />
        </mxCell>
        <mxCell id="-9XbWACIWwENg5wLCgYN-34" style="edgeStyle=orthogonalEdgeStyle;rounded=0;orthogonalLoop=1;jettySize=auto;html=1;exitX=0.5;exitY=1;exitDx=0;exitDy=0;entryX=0.5;entryY=0;entryDx=0;entryDy=0;" edge="1" parent="-9XbWACIWwENg5wLCgYN-29" source="-9XbWACIWwENg5wLCgYN-35" target="-9XbWACIWwENg5wLCgYN-37">
          <mxGeometry relative="1" as="geometry" />
        </mxCell>
        <mxCell id="-9XbWACIWwENg5wLCgYN-35" value="&lt;span style=&quot;font-size: 12px;&quot;&gt;查询&lt;/span&gt;&lt;div&gt;&lt;span style=&quot;font-size: 12px;&quot;&gt;勘察信息&lt;/span&gt;&lt;/div&gt;" style="whiteSpace=wrap;html=1;fontSize=8;fontFamily=Verdana;rounded=0;shadow=0;labelBackgroundColor=none;strokeWidth=1;" vertex="1" parent="-9XbWACIWwENg5wLCgYN-29">
          <mxGeometry x="30" y="480" width="100" height="60" as="geometry" />
        </mxCell>
        <mxCell id="-9XbWACIWwENg5wLCgYN-36" style="edgeStyle=orthogonalEdgeStyle;rounded=0;orthogonalLoop=1;jettySize=auto;html=1;exitX=0.5;exitY=1;exitDx=0;exitDy=0;entryX=0.5;entryY=0;entryDx=0;entryDy=0;" edge="1" parent="-9XbWACIWwENg5wLCgYN-29" source="-9XbWACIWwENg5wLCgYN-37" target="-9XbWACIWwENg5wLCgYN-39">
          <mxGeometry relative="1" as="geometry" />
        </mxCell>
        <mxCell id="-9XbWACIWwENg5wLCgYN-37" value="&lt;span style=&quot;font-size: 12px;&quot;&gt;查询&lt;/span&gt;&lt;div&gt;&lt;span style=&quot;font-size: 12px;&quot;&gt;工序信息&lt;/span&gt;&lt;/div&gt;" style="whiteSpace=wrap;html=1;fontSize=8;fontFamily=Verdana;rounded=0;shadow=0;labelBackgroundColor=none;strokeWidth=1;" vertex="1" parent="-9XbWACIWwENg5wLCgYN-29">
          <mxGeometry x="30" y="580" width="100" height="60" as="geometry" />
        </mxCell>
        <mxCell id="-9XbWACIWwENg5wLCgYN-38" style="edgeStyle=orthogonalEdgeStyle;rounded=0;orthogonalLoop=1;jettySize=auto;html=1;exitX=0.5;exitY=1;exitDx=0;exitDy=0;entryX=0.5;entryY=0;entryDx=0;entryDy=0;" edge="1" parent="-9XbWACIWwENg5wLCgYN-29" source="-9XbWACIWwENg5wLCgYN-39" target="-9XbWACIWwENg5wLCgYN-41">
          <mxGeometry relative="1" as="geometry" />
        </mxCell>
        <mxCell id="-9XbWACIWwENg5wLCgYN-39" value="&lt;span style=&quot;font-size: 12px;&quot;&gt;查询&lt;/span&gt;&lt;div&gt;&lt;span style=&quot;font-size: 12px;&quot;&gt;检修班组&lt;/span&gt;&lt;/div&gt;" style="whiteSpace=wrap;html=1;fontSize=8;fontFamily=Verdana;rounded=0;shadow=0;labelBackgroundColor=none;strokeWidth=1;" vertex="1" parent="-9XbWACIWwENg5wLCgYN-29">
          <mxGeometry x="30" y="680" width="100" height="60" as="geometry" />
        </mxCell>
        <mxCell id="-9XbWACIWwENg5wLCgYN-40" style="edgeStyle=orthogonalEdgeStyle;rounded=0;orthogonalLoop=1;jettySize=auto;html=1;exitX=0.5;exitY=1;exitDx=0;exitDy=0;entryX=0.5;entryY=0;entryDx=0;entryDy=0;" edge="1" parent="-9XbWACIWwENg5wLCgYN-29" source="-9XbWACIWwENg5wLCgYN-41" target="-9XbWACIWwENg5wLCgYN-43">
          <mxGeometry relative="1" as="geometry" />
        </mxCell>
        <mxCell id="-9XbWACIWwENg5wLCgYN-41" value="&lt;span style=&quot;font-size: 12px;&quot;&gt;查询&lt;/span&gt;&lt;div&gt;&lt;span style=&quot;font-size: 12px;&quot;&gt;派发信息&lt;/span&gt;&lt;/div&gt;" style="whiteSpace=wrap;html=1;fontSize=8;fontFamily=Verdana;rounded=0;shadow=0;labelBackgroundColor=none;strokeWidth=1;" vertex="1" parent="-9XbWACIWwENg5wLCgYN-29">
          <mxGeometry x="30" y="780" width="100" height="60" as="geometry" />
        </mxCell>
        <mxCell id="-9XbWACIWwENg5wLCgYN-42" style="edgeStyle=orthogonalEdgeStyle;rounded=0;orthogonalLoop=1;jettySize=auto;html=1;exitX=0.5;exitY=1;exitDx=0;exitDy=0;entryX=0.5;entryY=0;entryDx=0;entryDy=0;" edge="1" parent="-9XbWACIWwENg5wLCgYN-29" source="-9XbWACIWwENg5wLCgYN-43" target="-9XbWACIWwENg5wLCgYN-44">
          <mxGeometry relative="1" as="geometry" />
        </mxCell>
        <mxCell id="-9XbWACIWwENg5wLCgYN-43" value="&lt;span style=&quot;font-size: 12px;&quot;&gt;查询&lt;/span&gt;&lt;div&gt;&lt;span style=&quot;font-size: 12px;&quot;&gt;创建人组织信息&lt;/span&gt;&lt;/div&gt;" style="whiteSpace=wrap;html=1;fontSize=8;fontFamily=Verdana;rounded=0;shadow=0;labelBackgroundColor=none;strokeWidth=1;" vertex="1" parent="-9XbWACIWwENg5wLCgYN-29">
          <mxGeometry x="30" y="880" width="100" height="60" as="geometry" />
        </mxCell>
        <mxCell id="-9XbWACIWwENg5wLCgYN-44" value="&lt;span style=&quot;font-size: 12px;&quot;&gt;组装&lt;/span&gt;&lt;div&gt;&lt;span style=&quot;font-size: 12px;&quot;&gt;所有数据到检修计划对象&lt;/span&gt;&lt;/div&gt;" style="whiteSpace=wrap;html=1;fontSize=8;fontFamily=Verdana;rounded=0;shadow=0;labelBackgroundColor=none;strokeWidth=1;" vertex="1" parent="-9XbWACIWwENg5wLCgYN-29">
          <mxGeometry x="30" y="980" width="100" height="60" as="geometry" />
        </mxCell>
        <mxCell id="-9XbWACIWwENg5wLCgYN-45" value="完善检修计划返回数据" style="swimlane;html=1;startSize=20;" vertex="1" parent="-9XbWACIWwENg5wLCgYN-1">
          <mxGeometry x="640" y="20" width="160" height="1080" as="geometry" />
        </mxCell>
        <mxCell id="-9XbWACIWwENg5wLCgYN-46" style="edgeStyle=orthogonalEdgeStyle;rounded=0;orthogonalLoop=1;jettySize=auto;html=1;exitX=0.5;exitY=1;exitDx=0;exitDy=0;entryX=0.5;entryY=0;entryDx=0;entryDy=0;" edge="1" parent="-9XbWACIWwENg5wLCgYN-45" source="-9XbWACIWwENg5wLCgYN-57" target="-9XbWACIWwENg5wLCgYN-48">
          <mxGeometry relative="1" as="geometry">
            <mxPoint x="80" y="325" as="sourcePoint" />
          </mxGeometry>
        </mxCell>
        <mxCell id="-9XbWACIWwENg5wLCgYN-47" style="edgeStyle=orthogonalEdgeStyle;rounded=0;orthogonalLoop=1;jettySize=auto;html=1;exitX=0.5;exitY=1;exitDx=0;exitDy=0;" edge="1" parent="-9XbWACIWwENg5wLCgYN-45" source="-9XbWACIWwENg5wLCgYN-48" target="-9XbWACIWwENg5wLCgYN-50">
          <mxGeometry relative="1" as="geometry" />
        </mxCell>
        <mxCell id="-9XbWACIWwENg5wLCgYN-48" value="&lt;span style=&quot;font-size: 12px;&quot;&gt;检修计划对象中&lt;/span&gt;&lt;div&gt;&lt;span style=&quot;font-size: 12px;&quot;&gt;码值转换并赋值&lt;/span&gt;&lt;/div&gt;" style="whiteSpace=wrap;html=1;fontSize=8;fontFamily=Verdana;rounded=0;shadow=0;labelBackgroundColor=none;strokeWidth=1;" vertex="1" parent="-9XbWACIWwENg5wLCgYN-45">
          <mxGeometry x="30" y="380" width="100" height="60" as="geometry" />
        </mxCell>
        <mxCell id="-9XbWACIWwENg5wLCgYN-49" style="edgeStyle=orthogonalEdgeStyle;rounded=0;orthogonalLoop=1;jettySize=auto;html=1;exitX=0.5;exitY=1;exitDx=0;exitDy=0;entryX=0.5;entryY=0;entryDx=0;entryDy=0;" edge="1" parent="-9XbWACIWwENg5wLCgYN-45" source="-9XbWACIWwENg5wLCgYN-50" target="-9XbWACIWwENg5wLCgYN-58">
          <mxGeometry relative="1" as="geometry">
            <mxPoint x="80" y="560" as="targetPoint" />
          </mxGeometry>
        </mxCell>
        <mxCell id="-9XbWACIWwENg5wLCgYN-50" value="&lt;div&gt;&lt;span style=&quot;font-size: 12px;&quot;&gt;查询扩展属性&lt;/span&gt;&lt;/div&gt;&lt;div&gt;&lt;span style=&quot;font-size: 12px;&quot;&gt;并组装到检修计划&lt;/span&gt;&lt;/div&gt;" style="whiteSpace=wrap;html=1;fontSize=8;fontFamily=Verdana;rounded=0;shadow=0;labelBackgroundColor=none;strokeWidth=1;" vertex="1" parent="-9XbWACIWwENg5wLCgYN-45">
          <mxGeometry x="30" y="480" width="100" height="60" as="geometry" />
        </mxCell>
        <mxCell id="-9XbWACIWwENg5wLCgYN-57" value="&lt;div&gt;&lt;span style=&quot;font-size: 12px;&quot;&gt;组装&lt;/span&gt;&lt;/div&gt;&lt;span style=&quot;font-size: 12px;&quot;&gt;发送到调度的工作内容&lt;/span&gt;" style="whiteSpace=wrap;html=1;fontSize=8;fontFamily=Verdana;rounded=0;shadow=0;labelBackgroundColor=none;strokeWidth=1;" vertex="1" parent="-9XbWACIWwENg5wLCgYN-45">
          <mxGeometry x="30" y="280" width="100" height="60" as="geometry" />
        </mxCell>
        <mxCell id="-9XbWACIWwENg5wLCgYN-58" value="&lt;span style=&quot;font-size: 12px;&quot;&gt;成功返回&lt;/span&gt;" style="whiteSpace=wrap;html=1;fontSize=8;fontFamily=Verdana;rounded=0;shadow=0;labelBackgroundColor=none;strokeWidth=1;" vertex="1" parent="-9XbWACIWwENg5wLCgYN-45">
          <mxGeometry x="30" y="980" width="100" height="60" as="geometry" />
        </mxCell>
        <mxCell id="-9XbWACIWwENg5wLCgYN-59" value="" style="edgeStyle=orthogonalEdgeStyle;rounded=0;orthogonalLoop=1;jettySize=auto;html=1;entryX=0.5;entryY=0;entryDx=0;entryDy=0;" edge="1" parent="-9XbWACIWwENg5wLCgYN-1" source="-9XbWACIWwENg5wLCgYN-6" target="-9XbWACIWwENg5wLCgYN-70">
          <mxGeometry relative="1" as="geometry">
            <mxPoint x="240" y="290" as="targetPoint" />
            <Array as="points">
              <mxPoint x="240" y="218" />
            </Array>
          </mxGeometry>
        </mxCell>
        <mxCell id="-9XbWACIWwENg5wLCgYN-60" value="是" style="edgeLabel;html=1;align=center;verticalAlign=middle;resizable=0;points=[];" vertex="1" connectable="0" parent="-9XbWACIWwENg5wLCgYN-59">
          <mxGeometry x="-0.5771" relative="1" as="geometry">
            <mxPoint as="offset" />
          </mxGeometry>
        </mxCell>
        <mxCell id="-9XbWACIWwENg5wLCgYN-64" style="edgeStyle=orthogonalEdgeStyle;rounded=0;orthogonalLoop=1;jettySize=auto;html=1;exitX=0.5;exitY=1;exitDx=0;exitDy=0;entryX=0.5;entryY=0;entryDx=0;entryDy=0;" edge="1" parent="-9XbWACIWwENg5wLCgYN-1" source="-9XbWACIWwENg5wLCgYN-44" target="-9XbWACIWwENg5wLCgYN-57">
          <mxGeometry relative="1" as="geometry">
            <Array as="points">
              <mxPoint x="560" y="1090" />
              <mxPoint x="630" y="1090" />
              <mxPoint x="630" y="230" />
              <mxPoint x="720" y="230" />
            </Array>
          </mxGeometry>
        </mxCell>
        <mxCell id="-9XbWACIWwENg5wLCgYN-72" style="edgeStyle=orthogonalEdgeStyle;rounded=0;orthogonalLoop=1;jettySize=auto;html=1;exitX=1;exitY=0.5;exitDx=0;exitDy=0;entryX=0;entryY=0.5;entryDx=0;entryDy=0;" edge="1" parent="-9XbWACIWwENg5wLCgYN-1" source="-9XbWACIWwENg5wLCgYN-65" target="-9XbWACIWwENg5wLCgYN-70">
          <mxGeometry relative="1" as="geometry" />
        </mxCell>
        <mxCell id="-9XbWACIWwENg5wLCgYN-73" value="是" style="edgeLabel;html=1;align=center;verticalAlign=middle;resizable=0;points=[];" vertex="1" connectable="0" parent="-9XbWACIWwENg5wLCgYN-72">
          <mxGeometry x="-0.6343" y="2" relative="1" as="geometry">
            <mxPoint as="offset" />
          </mxGeometry>
        </mxCell>
        <mxCell id="-9XbWACIWwENg5wLCgYN-81" style="edgeStyle=orthogonalEdgeStyle;rounded=0;orthogonalLoop=1;jettySize=auto;html=1;exitX=0.5;exitY=1;exitDx=0;exitDy=0;entryX=0.5;entryY=0;entryDx=0;entryDy=0;" edge="1" parent="-9XbWACIWwENg5wLCgYN-1" source="-9XbWACIWwENg5wLCgYN-16" target="-9XbWACIWwENg5wLCgYN-78">
          <mxGeometry relative="1" as="geometry">
            <Array as="points">
              <mxPoint x="240" y="480" />
              <mxPoint x="310" y="480" />
              <mxPoint x="310" y="240" />
              <mxPoint x="400" y="240" />
            </Array>
          </mxGeometry>
        </mxCell>
        <mxCell id="-9XbWACIWwENg5wLCgYN-86" style="edgeStyle=orthogonalEdgeStyle;rounded=0;orthogonalLoop=1;jettySize=auto;html=1;exitX=0.5;exitY=1;exitDx=0;exitDy=0;entryX=0.5;entryY=0;entryDx=0;entryDy=0;" edge="1" parent="-9XbWACIWwENg5wLCgYN-1" source="-9XbWACIWwENg5wLCgYN-84" target="-9XbWACIWwENg5wLCgYN-31">
          <mxGeometry relative="1" as="geometry">
            <Array as="points">
              <mxPoint x="400" y="900" />
              <mxPoint x="470" y="900" />
              <mxPoint x="470" y="240" />
              <mxPoint x="560" y="240" />
            </Array>
          </mxGeometry>
        </mxCell>
      </root>
    </mxGraphModel>
  </diagram>
</mxfile>
